<?xml version="1.0" encoding="utf-8"?>
<svg version="1.1" xmlns="http://www.w3.org/2000/svg" width="180px" height="40px" viewBox="0 0 180 40">
<g>
	<g>
		<path fill="#FFFFFF" d="M17.1,10.4c0,2-1.6,3.6-3.6,3.6s-3.6-1.6-3.6-3.6s1.6-3.6,3.6-3.6C15.5,7,17.1,8.6,17.1,10.4"/>
		<path fill="#FFFFFF" d="M8.3,25.1c0,2-1.6,3.6-3.6,3.6s-3.6-1.6-3.6-3.6s1.6-3.6,3.6-3.6S8.3,23.2,8.3,25.1"/>
		<path fill="#FFFFFF" d="M25.7,25.1c0,2-1.6,3.6-3.6,3.6s-3.6-1.6-3.6-3.6s1.6-3.6,3.6-3.6S25.7,23.2,25.7,25.1"/>
		<path fill="#FFFFFF" d="M38.5,22.3h-2v6.1h-3V12.1h6c3.7,0,5.5,2.4,5.5,5.1c0,2-1,4-3.4,4.7l4.1,6.4h-3.6L38.5,22.3z M36.5,19.5
			h2.7c2,0,2.7-1.2,2.7-2.4c0-1.2-0.8-2.3-2.4-2.3h-3.1v4.7H36.5z"/>
		<polygon fill="#FFFFFF" points="52.7,12.1 63.5,12.1 63.5,14.9 55.6,14.9 55.6,18.7 62.9,18.7 62.9,21.5 55.6,21.5 55.6,25.6 
			63.5,25.6 63.5,28.3 52.7,28.3 		"/>
		<path fill="#FFFFFF" d="M79.5,24.7h-5.8l-1.3,3.7h-3.2l6.4-16.3h2.3L84,28.3h-3.2L79.5,24.7z M74.6,21.9h4l-2-5.6L74.6,21.9z"/>
		<polygon fill="#FFFFFF" points="90.3,12.1 93.4,12.1 93.4,25.4 101.7,25.4 101.7,28.3 90.3,28.3 		"/>
		<path fill="#FFFFFF" d="M119.6,17.3c0,2.7-1.7,5.2-5.8,5.2h-2.6v5.7h-3V12h5.9C118,12,119.6,14.7,119.6,17.3 M116.6,17.3
			c0-1.3-0.9-2.5-2.5-2.5h-3v5h2.7C115.8,19.8,116.6,18.5,116.6,17.3"/>
		<path fill="#FFFFFF" d="M133.2,24.7h-5.8l-1.3,3.7h-3.2l6.4-16.3h2.3l6.2,16.3h-3.2L133.2,24.7z M128.3,21.9h4l-2-5.6L128.3,21.9z
			"/>
		<path fill="#FFFFFF" d="M141.4,20.1c0-4.9,3.8-8.4,8.6-8.4c2.7,0,5.2,1.2,6.6,2.7l-2,2.1c-1.2-1.2-2.8-1.9-4.7-1.9
			c-3.1,0-5.5,2.3-5.5,5.5c0,3.1,2.3,5.5,5.5,5.5c1.8,0,3.5-0.8,4.5-1.9v-2.5h-4.7v-2.6h7.5v6.6c-2,2.1-4.7,3.3-7.4,3.3
			C144.9,28.5,141.4,25,141.4,20.1"/>
		<polygon fill="#FFFFFF" points="163.6,12 174.4,12 174.4,14.8 166.7,14.8 166.7,18.6 173.9,18.6 173.9,21.5 166.7,21.5 
			166.7,25.4 174.4,25.4 174.4,28.3 163.6,28.3 		"/>
	</g>
</g>
</svg>
