<?xml version="1.0" encoding="utf-8"?>
<!-- Generator: Adobe Illustrator 23.0.4, SVG Export Plug-In . SVG Version: 6.00 Build 0)  -->
<svg version="1.1" id="Layer_1" xmlns="http://www.w3.org/2000/svg" xmlns:xlink="http://www.w3.org/1999/xlink" x="0px" y="0px"
	 viewBox="0 0 376 69" style="enable-background:new 0 0 376 69;" xml:space="preserve">
<style type="text/css">
	.st0{fill:#f8fafc;} /* Changed to light color for dark theme */
	.st1{fill:#38bdf8;} /* Changed to accent blue */
</style>
<g>
	<path class="st0" d="M110.9,66.6L100,51.7h-6.3v14.9H85V24.4h15.9c2.9,0,5.6,0.6,7.9,1.7c2.3,1.1,4.1,2.7,5.4,4.8
		c1.3,2.1,1.9,4.4,1.9,7.1c0,2.7-0.7,5.1-2,7.2c-1.3,2.1-3.1,3.7-5.4,4.9l12,16.6H110.9z M93.6,44.1h7.2c2,0,3.6-0.6,4.7-1.7
		c1.1-1.1,1.7-2.6,1.7-4.4c0-1.8-0.6-3.2-1.7-4.3c-1.2-1.1-2.7-1.7-4.7-1.7h-7.2V44.1z"/>
	<path class="st0" d="M153.5,53.6h-22.2c0.5,2,1.5,3.5,3.1,4.6c1.6,1.1,3.5,1.6,5.8,1.6c3.1,0,6.1-1.1,8.8-3.2l3.6,5.9
		c-3.8,3.2-8,4.7-12.7,4.7c-3.3,0-6.2-0.7-8.9-2.2c-2.6-1.4-4.7-3.4-6.2-6c-1.5-2.5-2.2-5.3-2.2-8.4c0-3.1,0.7-5.9,2.2-8.4
		c1.4-2.5,3.4-4.5,6-6c2.5-1.4,5.3-2.2,8.4-2.2c2.9,0,5.5,0.7,7.7,1.9c2.3,1.3,4,3.1,5.3,5.3c1.3,2.2,1.9,4.7,1.9,7.4
		C154,50.5,153.8,52,153.5,53.6z M134,42.9c-1.4,1.1-2.3,2.7-2.7,4.7h14.4c0-2-0.7-3.5-2-4.7c-1.3-1.2-2.9-1.7-4.8-1.7
		C137,41.2,135.4,41.8,134,42.9z"/>
	<path class="st0" d="M186.6,37.7c2.1,2.3,3.2,5.4,3.2,9.2v19.6h-8.6V48.1c0-1.8-0.5-3.3-1.6-4.4c-1.1-1.1-2.5-1.7-4.3-1.7
		c-1.7,0-3.2,0.6-4.3,1.7c-1.1,1.1-1.7,2.6-1.7,4.4v18.5h-8.6V34.9h7.9v2.9c1.1-1.1,2.5-2,4.1-2.6c1.6-0.6,3.3-1,5.2-1
		C181.6,34.2,184.5,35.4,186.6,37.7z"/>
	<path class="st0" d="M218.5,59.3v7.2c-2,0.5-4,0.8-5.9,0.8c-4,0-7.1-1-9.3-3c-2.2-2-3.3-5-3.3-8.9V42.2h-5v-7.3h5v-8h8.6v8h8.9v7.3
		h-8.9v12.5c0,1.8,0.5,3.1,1.4,3.8c0.9,0.7,2.4,1.1,4.5,1.1C214.9,59.6,216.2,59.5,218.5,59.3z"/>
	<path class="st0" d="M225.3,24.4h15.9c2.9,0,5.6,0.6,7.9,1.7c2.3,1.1,4.1,2.7,5.4,4.8c1.3,2.1,1.9,4.4,1.9,7.1
		c0,2.7-0.6,5.1-1.9,7.1c-1.3,2.1-3.1,3.7-5.4,4.8c-2.3,1.1-4.9,1.7-7.9,1.7h-7.2v14.9h-8.6V24.4z M241.1,44.1c2,0,3.6-0.6,4.7-1.7
		c1.1-1.1,1.7-2.6,1.7-4.4c0-1.8-0.6-3.2-1.7-4.3c-1.2-1.1-2.7-1.7-4.7-1.7h-7.2v12.1H241.1z"/>
	<path class="st0" d="M282.1,34.9v7.6h-2.3c-2.6,0-4.7,0.7-6.2,2.1c-1.5,1.4-2.3,3.4-2.3,6.2v15.8h-8.6V34.9h7.9v3.8
		c1.1-1.3,2.3-2.3,3.8-3.1c1.5-0.7,3.1-1.1,4.9-1.1C280.4,34.5,281.3,34.7,282.1,34.9z"/>
	<path class="st0" d="M315.9,53.6h-22.2c0.5,2,1.5,3.5,3.1,4.6c1.6,1.1,3.5,1.6,5.8,1.6c3.1,0,6.1-1.1,8.8-3.2l3.6,5.9
		c-3.8,3.2-8,4.7-12.7,4.7c-3.3,0-6.2-0.7-8.9-2.2c-2.6-1.4-4.7-3.4-6.2-6c-1.5-2.5-2.2-5.3-2.2-8.4c0-3.1,0.7-5.9,2.2-8.4
		c1.4-2.5,3.4-4.5,6-6c2.5-1.4,5.3-2.2,8.4-2.2c2.9,0,5.5,0.7,7.7,1.9c2.3,1.3,4,3.1,5.3,5.3c1.3,2.2,1.9,4.7,1.9,7.4
		C316.5,50.5,316.3,52,315.9,53.6z M296.5,42.9c-1.4,1.1-2.3,2.7-2.7,4.7h14.4c0-2-0.7-3.5-2-4.7c-1.3-1.2-2.9-1.7-4.8-1.7
		C299.5,41.2,297.9,41.8,296.5,42.9z"/>
	<path class="st0" d="M325.9,65.7c-2.3-1.1-4.1-2.6-5.6-4.5l4.3-5.2c2.8,2.9,5.7,4.3,8.9,4.3c1.2,0,2.1-0.2,2.9-0.7
		c0.8-0.4,1.2-1.1,1.2-1.9c0-0.7-0.2-1.2-0.7-1.6c-0.5-0.4-1.3-0.8-2.5-1.3l-3.4-1.4c-2.9-1.2-5.1-2.5-6.5-4
		c-1.4-1.4-2.1-3.3-2.1-5.7c0-3,1.1-5.3,3.2-7c2.2-1.7,5-2.5,8.4-2.5c4.7,0,8.5,1.6,11.4,4.7l-4.3,5.3c-2.1-2-4.5-3-7.1-3
		c-1.1,0-1.9,0.2-2.5,0.6c-0.6,0.4-0.9,0.9-0.9,1.7c0,0.6,0.2,1.1,0.7,1.5c0.5,0.4,1.4,0.8,2.6,1.3l3.1,1.3c3.1,1.2,5.3,2.6,6.7,4
		c1.4,1.4,2.1,3.3,2.1,5.7c0,3.2-1.2,5.6-3.5,7.4c-2.3,1.8-5.3,2.7-8.9,2.7C330.7,67.3,328.1,66.8,325.9,65.7z"/>
	<path class="st0" d="M355,65.7c-2.3-1.1-4.1-2.6-5.6-4.5l4.3-5.2c2.8,2.9,5.7,4.3,8.9,4.3c1.2,0,2.1-0.2,2.9-0.7
		c0.8-0.4,1.2-1.1,1.2-1.9c0-0.7-0.2-1.2-0.7-1.6c-0.5-0.4-1.3-0.8-2.5-1.3l-3.4-1.4c-2.9-1.2-5.1-2.5-6.5-4
		c-1.4-1.4-2.1-3.3-2.1-5.7c0-3,1.1-5.3,3.2-7c2.2-1.7,5-2.5,8.4-2.5c4.7,0,8.5,1.6,11.4,4.7l-4.3,5.3c-2.1-2-4.5-3-7.1-3
		c-1.1,0-1.9,0.2-2.5,0.6c-0.6,0.4-0.9,0.9-0.9,1.7c0,0.6,0.2,1.1,0.7,1.5c0.5,0.4,1.4,0.8,2.6,1.3l3.1,1.3c3.1,1.2,5.3,2.6,6.7,4
		c1.4,1.4,2.1,3.3,2.1,5.7c0,3.2-1.2,5.6-3.5,7.4c-2.3,1.8-5.3,2.7-8.9,2.7C359.7,67.3,357.2,66.8,355,65.7z"/>
</g>
<g>
	<path class="st1" d="M36,66.5H25.1V46.8c0-7.8,6.4-14.2,14.2-14.2l9.5,0v-2.9L30.7,14.9L12.6,29.6v36.9H1.7V24.4l29-23.5l29,23.5
		v19l-18.1,0.1c-3.1,0-5.6,2.5-5.6,5.6V66.5z"/>
	<path class="st1" d="M59.4,54.3l-10.9,0.1c-0.9,0-1.6,0.7-1.6,1.7v10.5v0h12.5c0.2,0,0.3-0.1,0.3-0.3V54.6
		C59.7,54.4,59.6,54.3,59.4,54.3z"/>
</g>
</svg>
